<svg width="80" height="54" viewBox="0 0 80 54" fill="none" xmlns="http://www.w3.org/2000/svg">
<path d="M24.4812 0.166455L26.7695 13.7591H26.775C34.0145 13.7575 39.8917 19.6399 39.9185 26.9143C39.9454 34.1888 34.1118 40.1148 26.8725 40.1672C19.6331 40.2196 13.7152 34.3786 13.6379 27.1045L0.122137 24.4511C0.0464122 25.2789 0 26.1159 0 26.9633C-0.000337206 41.8209 11.9858 53.8657 26.7719 53.8664C41.5581 53.8671 53.5452 41.8234 53.5463 26.9658C53.5473 12.1082 41.5617 0.062879 26.7756 0.0615234C26.0024 0.0615234 25.2379 0.102023 24.4812 0.166455Z" fill="#4D92FB"/>
<path d="M52.9285 40.1641C45.6989 40.0885 39.8886 34.1578 39.9267 26.893C39.9647 19.6282 45.8369 13.7593 53.0669 13.7601C53.175 13.7601 53.2812 13.7656 53.3881 13.7687L55.6739 0.191364C54.8153 0.107909 53.9463 0.0625 53.0663 0.0625C42.2376 0.0625 32.4751 6.61707 28.3311 16.6698C24.1872 26.7226 26.4777 38.2938 34.1348 45.9878C41.7919 53.6819 53.3075 55.9835 63.3119 51.8195C73.3163 47.6556 79.8394 37.8459 79.8394 26.9649C79.8394 26.1384 79.7966 25.3222 79.724 24.5141L66.2028 27.168C66.0902 34.4321 60.1582 40.2398 52.9285 40.1641Z" fill="#FFDF00"/>
<path d="M53.5493 26.9646C53.5495 19.8294 50.7287 12.9864 45.7076 7.94106C40.6865 2.89573 33.8764 0.0613607 26.7756 0.0615234C26.0024 0.0615234 25.2378 0.102023 24.4812 0.166455L26.7694 13.7591H26.7749C34.0299 13.7669 39.9092 19.6746 39.9169 26.9646H53.5493Z" fill="#4D92FB"/>
</svg>
